# xmcd
#
# Track frame offsets: 
#        150
#        13617
#        24770
#        36207
#        59416
#        73888
#        87681
#        107285
#        123437
#        146846
#
# Disc length: 2156 seconds
#
# Revision: 1
# Processed by: cddbd v1.5.2PL0 Copyright (c) Steve Scherf et al.
# Submitted via: ExactAudioCopyFreeDBPlugin 1.0
#
DISCID=87086a0a
DTITLE=Sam and Dave - Back At' Cha!
DYEAR=2009
DGENRE=Soul
TTITLE0=When My Love Comes Down
TTITLE1=A Little Bit of Good (Cures a Whole Lot of Bad)
TTITLE2=There's a Party in My Heart
TTITLE3=Under the Boardwalk
TTITLE4=Shoo Rah Shoo Rah
TTITLE5=Queen of the Ghetto
TTITLE6=Blinded By Love
TTITLE7=Give it What You Can
TTITLE8=Don't Close the Curtain (Before You See the Play)
TTITLE9=Come Into My Life
EXTD=
EXTT0=
EXTT1=
EXTT2=
EXTT3=
EXTT4=
EXTT5=
EXTT6=
EXTT7=
EXTT8=
EXTT9=
PLAYORDER=
